<?xml version="1.0" encoding="UTF-8" standalone="no"?>
<svg
   class="svg-inline icon-logo-lp"
   id="Capa_1"
   data-name="Capa 1"
   viewBox="0 0 1000 1356.2816"
   data-gtm="{&quot;event&quot;:&quot;LogoHeader&quot;,&quot;eventTypes&quot;:&quot;link,click,hover&quot;,&quot;action&quot;:&quot;&quot;,&quot;label&quot;:&quot;https://www.lapolar.cl/on/demandware.store/Sites-LaPolar-Site&quot;}"
   version="1.1"
   sodipodi:docname="La Polar.svg"
   width="1000"
   height="1356.2816"
   inkscape:version="1.3 (0e150ed6c4, 2023-07-21)"
   xmlns:inkscape="http://www.inkscape.org/namespaces/inkscape"
   xmlns:sodipodi="http://sodipodi.sourceforge.net/DTD/sodipodi-0.dtd"
   xmlns="http://www.w3.org/2000/svg"
   xmlns:svg="http://www.w3.org/2000/svg">
  <sodipodi:namedview
     id="namedview8"
     pagecolor="#ffffff"
     bordercolor="#000000"
     borderopacity="0.25"
     inkscape:showpageshadow="2"
     inkscape:pageopacity="0.0"
     inkscape:pagecheckerboard="0"
     inkscape:deskcolor="#d1d1d1"
     inkscape:zoom="0.4155"
     inkscape:cx="241.87726"
     inkscape:cy="768.95307"
     inkscape:window-width="1920"
     inkscape:window-height="1009"
     inkscape:window-x="-8"
     inkscape:window-y="-8"
     inkscape:window-maximized="1"
     inkscape:current-layer="Capa_1" />
  <defs
     data-gtm="{&quot;event&quot;:&quot;LogoHeader&quot;,&quot;eventTypes&quot;:&quot;link,click,hover&quot;,&quot;action&quot;:&quot;&quot;,&quot;label&quot;:&quot;https://www.lapolar.cl/on/demandware.store/Sites-LaPolar-Site&quot;}"
     id="defs1">
    <style
       data-gtm="{&quot;event&quot;:&quot;LogoHeader&quot;,&quot;eventTypes&quot;:&quot;link,click,hover&quot;,&quot;action&quot;:&quot;&quot;,&quot;label&quot;:&quot;https://www.lapolar.cl/on/demandware.store/Sites-LaPolar-Site&quot;}"
       id="style1">.cls-1{fill:#e41d1e;}.cls-2{fill:#fff;}.cls-3{fill:#54565a;}</style>
  </defs>
  <rect
     class="cls-1"
     width="1000"
     height="1000.0135"
     data-gtm="{&quot;event&quot;:&quot;LogoHeader&quot;,&quot;eventTypes&quot;:&quot;link,click,hover&quot;,&quot;action&quot;:&quot;&quot;,&quot;label&quot;:&quot;https://www.lapolar.cl/on/demandware.store/Sites-LaPolar-Site&quot;}"
     id="rect1"
     x="0"
     y="0"
     style="stroke-width:1.35628" />
  <path
     class="cls-2"
     d="m 786.90103,858.52627 a 69.997695,69.997695 0 1 1 69.9977,-69.98413 70.065509,70.065509 0 0 1 -69.9977,69.98413"
     data-gtm="{&quot;event&quot;:&quot;LogoHeader&quot;,&quot;eventTypes&quot;:&quot;link,click,hover&quot;,&quot;action&quot;:&quot;&quot;,&quot;label&quot;:&quot;https://www.lapolar.cl/on/demandware.store/Sites-LaPolar-Site&quot;}"
     id="path1"
     style="stroke-width:1.35628" />
  <polygon
     class="cls-2"
     points="209.95,526.94 421.57,526.94 421.57,632.26 105.07,632.26 105.07,105.07 209.95,105.07 "
     data-gtm="{&quot;event&quot;:&quot;LogoHeader&quot;,&quot;eventTypes&quot;:&quot;link,click,hover&quot;,&quot;action&quot;:&quot;&quot;,&quot;label&quot;:&quot;https://www.lapolar.cl/on/demandware.store/Sites-LaPolar-Site&quot;}"
     id="polygon2"
     transform="scale(1.3562816)" />
  <path
     class="cls-2"
     d="m 642.87749,143.11484 h -214.401 v 142.26038 h 214.401 a 71.760861,71.760861 0 0 1 0,143.50815 H 428.04248 v 142.24682 h 214.83501 c 117.9965,0 214.00768,-95.99761 214.00768,-214.00768 0,-118.01006 -96.01118,-214.00767 -214.00768,-214.00767"
     data-gtm="{&quot;event&quot;:&quot;LogoHeader&quot;,&quot;eventTypes&quot;:&quot;link,click,hover&quot;,&quot;action&quot;:&quot;&quot;,&quot;label&quot;:&quot;https://www.lapolar.cl/on/demandware.store/Sites-LaPolar-Site&quot;}"
     id="path3"
     style="stroke-width:1.35628" />
  <rect
     class="cls-3"
     y="1106.2782"
     width="1000"
     height="250.00339"
     data-gtm="{&quot;event&quot;:&quot;LogoHeader&quot;,&quot;eventTypes&quot;:&quot;link,click,hover&quot;,&quot;action&quot;:&quot;&quot;,&quot;label&quot;:&quot;https://www.lapolar.cl/on/demandware.store/Sites-LaPolar-Site&quot;}"
     id="rect3"
     x="0"
     style="stroke-width:1.35628" />
  <polygon
     class="cls-2"
     points="112.73,944.9 112.73,870.67 132.11,870.67 132.11,928.38 163.56,928.38 163.56,944.9 "
     data-gtm="{&quot;event&quot;:&quot;LogoHeader&quot;,&quot;eventTypes&quot;:&quot;link,click,hover&quot;,&quot;action&quot;:&quot;&quot;,&quot;label&quot;:&quot;https://www.lapolar.cl/on/demandware.store/Sites-LaPolar-Site&quot;}"
     id="polygon3"
     transform="scale(1.3562816)" />
  <path
     class="cls-2"
     d="m 266.64497,1207.9451 c -3.6484,3.7976 -5.42513,8.9243 -5.42513,15.448 v 14.3495 h 40.79695 v -14.3766 c 0,-6.5237 -1.84454,-11.6504 -5.53363,-15.448 -3.68908,-3.7976 -8.63951,-5.6693 -14.9191,-5.6693 -6.27958,0 -11.29782,1.8853 -14.91909,5.6693 m 39.49492,-22.6906 a 38.762529,38.762529 0 0 1 16.37032,15.231 44.472474,44.472474 0 0 1 5.70994,22.9076 v 58.1845 H 301.9761 v -23.6942 h -40.79695 v 23.6942 h -26.27117 v -58.1845 a 44.974299,44.974299 0 0 1 5.66925,-22.9076 38.369207,38.369207 0 0 1 16.15332,-15.231 53.220491,53.220491 0 0 1 24.56226,-5.4251 54.441144,54.441144 0 0 1 24.84708,5.4251"
     data-gtm="{&quot;event&quot;:&quot;LogoHeader&quot;,&quot;eventTypes&quot;:&quot;link,click,hover&quot;,&quot;action&quot;:&quot;&quot;,&quot;label&quot;:&quot;https://www.lapolar.cl/on/demandware.store/Sites-LaPolar-Site&quot;}"
     id="path4"
     style="stroke-width:1.35628" />
  <path
     class="cls-2"
     d="m 375.22887,1201.8418 v 30.8826 h 16.65514 q 8.04275,0 12.42354,-4.0689 4.38079,-4.0688 4.38079,-11.6504 c 0,-4.8827 -1.46478,-8.626 -4.38079,-11.2707 -2.916,-2.6448 -7.06623,-3.9468 -12.42354,-3.9468 z m 47.82249,-11.7047 q 10.61969,9.2499 10.61969,26.0678 0,17.8215 -10.61969,27.641 -10.61968,9.8195 -29.83819,9.8466 h -17.9843 v 27.858 h -26.28473 v -100.6768 h 44.22834 q 19.24564,0 29.8382,9.2634"
     data-gtm="{&quot;event&quot;:&quot;LogoHeader&quot;,&quot;eventTypes&quot;:&quot;link,click,hover&quot;,&quot;action&quot;:&quot;&quot;,&quot;label&quot;:&quot;https://www.lapolar.cl/on/demandware.store/Sites-LaPolar-Site&quot;}"
     id="path5"
     style="stroke-width:1.35628" />
  <path
     class="cls-2"
     d="m 483.88059,1206.3583 a 28.088592,28.088592 0 0 0 -10.13142,10.3484 29.485562,29.485562 0 0 0 10.26705,39.7119 25.999919,25.999919 0 0 0 13.73914,3.879 25.52522,25.52522 0 0 0 13.64419,-3.8112 27.88515,27.88515 0 0 0 9.8466,-10.484 31.628487,31.628487 0 0 0 0.0678,-29.3635 26.691622,26.691622 0 0 0 -9.84661,-10.3485 26.284738,26.284738 0 0 0 -13.712,-3.7297 26.705185,26.705185 0 0 0 -13.8612,3.7976 m 41.36659,-19.5305 a 50.412988,50.412988 0 0 1 19.53045,18.3098 48.934641,48.934641 0 0 1 7.10692,25.9999 49.938289,49.938289 0 0 1 -7.10692,26.2848 50.548616,50.548616 0 0 1 -19.53045,18.5268 60.544412,60.544412 0 0 1 -55.60755,0 50.589305,50.589305 0 0 1 -19.54402,-18.5268 49.938289,49.938289 0 0 1 -7.10691,-26.2848 49.178772,49.178772 0 0 1 7.10691,-26.1355 49.884038,49.884038 0 0 1 19.55758,-18.2556 61.371743,61.371743 0 0 1 55.60755,0"
     data-gtm="{&quot;event&quot;:&quot;LogoHeader&quot;,&quot;eventTypes&quot;:&quot;link,click,hover&quot;,&quot;action&quot;:&quot;&quot;,&quot;label&quot;:&quot;https://www.lapolar.cl/on/demandware.store/Sites-LaPolar-Site&quot;}"
     id="path6"
     style="stroke-width:1.35628" />
  <polygon
     class="cls-2"
     points="418.66,944.9 418.66,870.67 438.04,870.67 438.04,928.38 469.5,928.38 469.5,944.9 "
     data-gtm="{&quot;event&quot;:&quot;LogoHeader&quot;,&quot;eventTypes&quot;:&quot;link,click,hover&quot;,&quot;action&quot;:&quot;&quot;,&quot;label&quot;:&quot;https://www.lapolar.cl/on/demandware.store/Sites-LaPolar-Site&quot;}"
     id="polygon6"
     transform="scale(1.3562816)" />
  <path
     class="cls-2"
     d="m 681.5722,1207.9451 c -3.63483,3.7976 -5.42512,8.9243 -5.42512,15.448 v 14.3495 h 40.78339 v -14.3766 c 0,-6.5237 -1.83098,-11.6504 -5.53363,-15.448 -3.70265,-3.7976 -8.63952,-5.6693 -14.9191,-5.6693 -6.27958,0 -11.31139,1.8853 -14.9191,5.6693 m 39.49492,-22.6906 a 38.681152,38.681152 0 0 1 16.37032,15.231 44.472474,44.472474 0 0 1 5.81845,22.9076 v 58.1845 h -26.33899 v -23.6942 h -40.78339 v 23.6942 h -26.28474 v -58.1845 a 44.974299,44.974299 0 0 1 5.66926,-22.9076 38.47771,38.47771 0 0 1 16.16688,-15.231 53.179802,53.179802 0 0 1 24.56226,-5.4251 54.37333,54.37333 0 0 1 24.83351,5.4251"
     data-gtm="{&quot;event&quot;:&quot;LogoHeader&quot;,&quot;eventTypes&quot;:&quot;link,click,hover&quot;,&quot;action&quot;:&quot;&quot;,&quot;label&quot;:&quot;https://www.lapolar.cl/on/demandware.store/Sites-LaPolar-Site&quot;}"
     id="path7"
     style="stroke-width:1.35628" />
  <path
     class="cls-2"
     d="m 809.25256,1232.7244 q 8.04275,0 12.42354,-4.0689 4.38079,-4.0688 4.38079,-11.6369 c 0,-4.8826 -1.46479,-8.6259 -4.38079,-11.2707 -2.91601,-2.6447 -7.06623,-3.9468 -12.42354,-3.9468 h -19.09645 v 30.9233 z m 15.08185,48.8261 -14.63428,-28.0072 a 0.80020616,0.80020616 0 0 1 -0.5832,0.1492 h -18.98795 v 27.858 h -26.25761 v -100.6768 h 45.23199 q 19.97803,0 30.95035,9.2634 10.97232,9.2634 10.98588,26.0678 a 39.616986,39.616986 0 0 1 -4.58423,19.6796 31.045286,31.045286 0 0 1 -13.35937,12.6405 l 20.96811,33.0255 z"
     data-gtm="{&quot;event&quot;:&quot;LogoHeader&quot;,&quot;eventTypes&quot;:&quot;link,click,hover&quot;,&quot;action&quot;:&quot;&quot;,&quot;label&quot;:&quot;https://www.lapolar.cl/on/demandware.store/Sites-LaPolar-Site&quot;}"
     id="path8"
     style="stroke-width:1.35628" />
</svg>
